<?xml version="1.0" encoding="utf-8"?>
<!-- Generator: Adobe Illustrator 19.2.0, SVG Export Plug-In . SVG Version: 6.00 Build 0)  -->
<svg version="1.1" id="Layer_1" xmlns="http://www.w3.org/2000/svg" xmlns:xlink="http://www.w3.org/1999/xlink" x="0px" y="0px"
	 viewBox="0 0 288 288" style="enable-background:new 0 0 288 288;" xml:space="preserve">
<style type="text/css">
	.st0{fill:#3A3A3A;}
</style>
<path class="st0" d="M143.9,8C68.8,8,7.8,69,7.8,144.1c0,75,61.1,136.1,136.1,136.1c75,0,136.1-61.1,136.1-136.1
	C280,69,218.9,8,143.9,8z M143.9,257.5c-62.5,0-113.4-50.9-113.4-113.4c0-62.6,50.9-113.5,113.4-113.5s113.5,50.9,113.5,113.5
	C257.3,206.6,206.4,257.5,143.9,257.5z"/>
<rect x="119.7" y="180.9" class="st0" width="41.3" height="20.1"/>
<path class="st0" d="M132.7,129.3c0,0-0.7,25.5-22,37c-10.7,5.9-23.7,5.7-34.9,0.9c-11.7-5-25.4-15.7-25.7-37.9H74
	c0,0-0.5,22.3,20.1,20.1c20.6-2.2,17.9-20.1,17.9-20.1H132.7z"/>
<path class="st0" d="M236.4,129.3c0,0-0.7,25.5-22,37c-10.7,5.9-23.7,5.7-34.9,0.9c-11.7-5-25.4-15.7-25.7-37.9h23.9
	c0,0-0.5,22.3,20.1,20.1c20.6-2.2,17.9-20.1,17.9-20.1H236.4z"/>
</svg>
