<?xml version="1.0" encoding="utf-8"?>
<!-- Generator: Adobe Illustrator 19.2.0, SVG Export Plug-In . SVG Version: 6.00 Build 0)  -->
<svg version="1.1" id="Layer_1" xmlns="http://www.w3.org/2000/svg" xmlns:xlink="http://www.w3.org/1999/xlink" x="0px" y="0px"
	 viewBox="0 0 288 288" style="enable-background:new 0 0 288 288;" xml:space="preserve">
<style type="text/css">
	.st0{fill:#3A3A3A;}
</style>
<path class="st0" d="M144.5,6C68.1,6,5.9,68.2,5.9,144.6c0,76.4,62.2,138.6,138.6,138.6c76.4,0,138.6-62.2,138.6-138.6
	C283.1,68.2,221,6,144.5,6z M144.5,260.1C80.8,260.1,29,208.3,29,144.6S80.8,29.1,144.5,29.1S260,80.9,260,144.6
	S208.2,260.1,144.5,260.1z"/>
<rect x="119.8" y="182.1" class="st0" width="42" height="20.5"/>
<path class="st0" d="M113.1,135.4c0,12-9.8,21.8-21.8,21.8c-12.1,0-21.8-9.8-21.8-21.8c0-12.1,9.8-21.8,21.8-21.8
	C103.3,113.5,113.1,123.3,113.1,135.4z"/>
<path class="st0" d="M220.2,135.4c0,12-9.8,21.8-21.8,21.8c-12.1,0-21.8-9.8-21.8-21.8c0-12.1,9.8-21.8,21.8-21.8
	C210.4,113.5,220.2,123.3,220.2,135.4z"/>
</svg>
