<?xml version="1.0" encoding="utf-8"?>
<!-- Generator: Adobe Illustrator 19.2.0, SVG Export Plug-In . SVG Version: 6.00 Build 0)  -->
<svg version="1.1" id="Layer_1" xmlns="http://www.w3.org/2000/svg" xmlns:xlink="http://www.w3.org/1999/xlink" x="0px" y="0px"
	 viewBox="0 0 288 288" style="enable-background:new 0 0 288 288;" xml:space="preserve">
<style type="text/css">
	.st0{fill:#3A3A3A;}
	.st1{fill:#FFFFFF;}
</style>
<g>
	<path class="st0" d="M46.3,189.4H45L7.2,206.5l2-1.9L155.6,71c4.3,3.9,18.1,20.7,1.6,67.8C139.3,189.8,55.8,189.6,46.3,189.4z"/>
	<path class="st0" d="M232.3,87.3c-2.2,2.2-4.5,3.3-6.8,3.3c-0.2,0-0.3,0-0.5,0c-3.7-0.2-5.9-3.3-6-3.4c-0.3-0.3-0.2-0.8,0.1-1.1
		c0.4-0.2,0.9-0.2,1.2,0.2c0,0,2,2.5,4.9,2.7c2,0.2,4-0.8,6.1-2.8c0.3-0.3,0.8-0.3,1.1,0C232.6,86.5,232.6,87,232.3,87.3z"/>
	<path class="st1" d="M46,188.9l-1,0.5h1.4L46,188.9z"/>
</g>
<path class="st0" d="M246.5,81.3l-2.2-0.5l-2.2-0.6c-0.5-2.5-1.3-5-2.2-7.6c-4.5-12.7-12.8-21.5-24.7-26
	c-14.2-5.4-31.1-1.9-42.8,8.9L158.6,68c5.6,5,19.7,23.5,2.6,72.1c-8.3,23.5-31.1,40.3-65.8,48.3c-18.9,4.4-36.7,5.1-45.1,5.1
	c11.1,11,49.3,42.6,104.7,25.6c65.9-20.3,69.6-86.6,69.6-87.2l0-1l0.8-0.6c0.8-0.6,15.8-11.9,17.9-33.1l2.1-0.5l2.1-0.5l29.5-7.2
	L246.5,81.3z M232.3,87.3c-2.2,2.2-4.5,3.3-6.8,3.3c-0.2,0-0.3,0-0.5,0c-3.7-0.2-5.9-3.3-6-3.4c-0.3-0.3-0.2-0.8,0.1-1.1
	c0.4-0.2,0.9-0.2,1.2,0.2c0,0,2,2.5,4.9,2.7c2,0.2,4-0.8,6.1-2.8c0.3-0.3,0.8-0.3,1.1,0C232.6,86.5,232.6,87,232.3,87.3z"/>
<g>
	<path class="st0" d="M157.2,138.7c-17.9,51-101.4,50.9-110.9,50.6H45L7.2,206.5l2-1.9L155.6,71C159.9,74.8,173.8,91.7,157.2,138.7z
		"/>
</g>
<path class="st1" d="M232.3,87.3c-2.2,2.2-4.5,3.3-6.8,3.3c-0.2,0-0.3,0-0.5,0c-3.7-0.2-5.9-3.3-6-3.4c-0.3-0.3-0.2-0.8,0.1-1.1
	c0.4-0.2,0.9-0.2,1.2,0.2c0,0,2,2.5,4.9,2.7c2,0.2,4-0.8,6.1-2.8c0.3-0.3,0.8-0.3,1.1,0C232.6,86.5,232.6,87,232.3,87.3z"/>
</svg>
