<?xml version="1.0" encoding="utf-8"?>
<!-- Generator: Adobe Illustrator 19.2.0, SVG Export Plug-In . SVG Version: 6.00 Build 0)  -->
<svg version="1.1" id="Layer_1" xmlns="http://www.w3.org/2000/svg" xmlns:xlink="http://www.w3.org/1999/xlink" x="0px" y="0px"
	 viewBox="0 0 288 288" style="enable-background:new 0 0 288 288;" xml:space="preserve">
<style type="text/css">
	.st0{fill:#3A3A3A;}
</style>
<path class="st0" d="M148,63.4c-57.5,0-104,46.6-104,104c0,57.5,46.6,104,104,104c57.4,0,104-46.6,104-104
	C251.9,110,205.4,63.4,148,63.4z M148,80.7c2.8,0,5,2.3,5,5c0,2.8-2.3,5.1-5,5.1c-2.8,0-5.1-2.3-5.1-5.1
	C142.9,83,145.1,80.7,148,80.7z M66.9,172c-2.8,0-5.1-2.3-5.1-5.1c0-2.8,2.3-5.1,5.1-5.1c2.8,0,5,2.3,5,5.1
	C71.9,169.7,69.6,172,66.9,172z M78,121.3c2.8,0,5.1,2.3,5.1,5c0,2.8-2.3,5.1-5.1,5.1c-2.8,0-5.1-2.3-5.1-5.1
	C72.9,123.6,75.2,121.3,78,121.3z M78.5,213c-2.8,0-5.1-2.3-5.1-5.1c0-2.8,2.3-5.1,5.1-5.1c2.8,0,5.1,2.3,5.1,5.1
	C83.6,210.7,81.3,213,78.5,213z M107.4,91.9c2.8,0,5,2.3,5,5c0,2.8-2.3,5.1-5,5.1c-2.8,0-5.1-2.3-5.1-5.1
	C102.3,94.1,104.6,91.9,107.4,91.9z M107.9,242.4c-2.8,0-5.1-2.3-5.1-5c0-2.8,2.3-5.1,5.1-5.1c2.8,0,5,2.3,5,5.1
	C113,240.1,110.7,242.4,107.9,242.4z M123.6,213.5c-0.8,0-1.6-0.2-2.3-0.6c-2.1-1.3-2.9-4.1-1.6-6.3l23.7-40.5V103
	c0-2.5,2.1-4.6,4.6-4.6c2.5,0,4.6,2,4.6,4.6v64.4c0,0.8-0.2,1.6-0.6,2.3l-24.3,41.6C126.8,212.8,125.2,213.5,123.6,213.5z
	 M148.5,254.1c-2.8,0-5.1-2.3-5.1-5.1c0-2.8,2.3-5.1,5.1-5.1c2.8,0,5,2.3,5,5.1C153.5,251.8,151.2,254.1,148.5,254.1z M188.5,242.9
	c-2.8,0-5.1-2.3-5.1-5c0-2.8,2.3-5.1,5.1-5.1c2.8,0,5,2.3,5,5.1C193.6,240.6,191.3,242.9,188.5,242.9z M188.5,101.5
	c-2.8,0-5.1-2.3-5.1-5.1c0-2.8,2.3-5,5.1-5c2.8,0,5,2.3,5,5C193.6,99.2,191.3,101.5,188.5,101.5z M217.9,121.8c2.8,0,5.1,2.3,5.1,5
	c0,2.8-2.3,5.1-5.1,5.1c-2.8,0-5-2.3-5-5.1C212.8,124.1,215.1,121.8,217.9,121.8z M218.4,212.5c-2.8,0-5-2.3-5-5.1
	c0-2.8,2.3-5.1,5-5.1c2.8,0,5.1,2.3,5.1,5.1C223.5,210.3,221.2,212.5,218.4,212.5z M229.1,173c-2.8,0-5.1-2.3-5.1-5.1
	c0-2.8,2.3-5.1,5.1-5.1c2.8,0,5,2.3,5,5.1C234.1,170.7,231.8,173,229.1,173z"/>
<path class="st0" d="M36.1,132.6c0,0,30.9-60.3,68.6-70.1c0,0-21.1-31-60.5-15.4c-9,3.6-17,10-22.2,18.2
	C12.3,80.2,3.3,106.9,36.1,132.6z"/>
<path class="st0" d="M190.3,62.2c0,0,60.3,30.9,70.1,68.6c0,0,31-21.1,15.4-60.5c-3.6-9-10-17-18.2-22.2
	C242.7,38.5,216,29.5,190.3,62.2z"/>
</svg>
