<?xml version="1.0" encoding="utf-8"?>
<!-- Generator: Adobe Illustrator 19.2.0, SVG Export Plug-In . SVG Version: 6.00 Build 0)  -->
<svg version="1.1" id="Layer_1" xmlns="http://www.w3.org/2000/svg" xmlns:xlink="http://www.w3.org/1999/xlink" x="0px" y="0px"
	 viewBox="0 0 288 288" style="enable-background:new 0 0 288 288;" xml:space="preserve">
<style type="text/css">
	.st0{fill:#3A3A3A;}
	.st1{fill:none;}
</style>
<path class="st0" d="M108.2,135.9c-5,19.4-11.1,24.5-14.5,25.8c-2.9,1.1-5-0.2-5.4-0.4c-2.7-2.7-2.6-4.8-2.4-6.2
	C87.2,148.6,98.4,140.9,108.2,135.9z"/>
<path class="st0" d="M189,115.3c-0.1-0.2-0.1-0.3-0.2-0.4c-0.1-0.2-1.5-3-8.2-1.3c-1.2,0.3-2.6,0-3.5-0.8c-1.1-0.8-1.6-2.1-1.5-3.3
	c0-1.2-0.2-4.5-1.9-6.3c-0.8-0.8-2-1.4-3.6-1.4c-2.3,0.5-5.5,1.8-6.3,3.3c-0.8,1.5-2.5,2.4-4.2,2.2c-1.7-0.2-3.1-1.5-3.5-3.2
	c0-0.1-2.2-9-7.6-9.2c-5.3,0-6.5,7.3-6.5,7.6c-0.3,1.6-1.5,3-3.2,3.3c-1.6,0.4-3.3-0.3-4.2-1.7c-0.3-0.4-3.4-4.4-9.3-2.7
	c-2.2,0.6-2.7,1.6-3,1.9c-0.9,1.7-0.5,4.3-0.2,5.1c0.4,1.4,0.1,2.9-0.9,4c-1,1.1-2.4,1.5-3.8,1.3c-2-0.4-6.7-0.7-8.7,0.9
	c-0.3,0.2-1,0.8-0.9,3c0.1,2.2,0.6,3.7,1.7,4.7c1.8,1.7,4.8,1.6,4.8,1.6h0.3c2.1,0,3.8,1.5,4.1,3.6c1.9,18.8,11.6,72.4,31,72.4h0.2
	c19.3-0.3,26.7-54.2,27.8-73.1c0.1-2,1.6-3.6,3.6-3.8c2.2-0.2,6.9-1.3,8.2-3.6C189.7,119,190.3,118,189,115.3z M141.5,149.5
	c-0.2,0.2-0.5,0.3-0.8,0.3c-0.2,0-0.5-0.1-0.7-0.3l-1.5-1.4c-0.7,0.5-1.4,0.8-2.1,1.2l0.8,1.8c0.2,0.5,0,1.2-0.5,1.4
	c-0.1,0.1-0.3,0.1-0.4,0.1c-0.4,0-0.7-0.3-0.9-0.6l-0.9-2c-0.7,0.2-1.4,0.3-2.1,0.3c-0.2,0-0.4,0-0.7-0.1l-0.4,1.8
	c-0.1,0.5-0.5,0.8-1,0.8h-0.2c-0.6-0.1-0.9-0.7-0.8-1.2l0.4-1.7c-0.8-0.2-1.5-0.6-2.2-0.9l-1.6,1.5c-0.2,0.2-0.4,0.3-0.7,0.3
	c-0.3,0-0.5-0.1-0.7-0.3c-0.4-0.4-0.4-1,0-1.4l1.3-1.3c-1.1-0.8-1.7-1.7-1.8-1.7c-0.3-0.5-0.2-1.1,0.2-1.4c0.5-0.4,1.1-0.3,1.4,0.2
	c0.1,0,0.8,0.9,2.1,1.9c0.2,0.1,0.3,0.2,0.4,0.3c1,0.6,2.3,1.2,3.8,1.3c2,0.2,3.9-0.5,5.9-2.1c0.6-0.5,1.2-1,1.7-1.6
	c0.4-0.4,1.1-0.4,1.5,0.1c0.4,0.4,0.4,1,0,1.4c-0.3,0.3-0.6,0.6-0.9,0.9l1.3,1.1C141.8,148.5,141.8,149.1,141.5,149.5z M171.2,149.5
	c-0.2,0.2-0.5,0.3-0.7,0.3c-0.3,0-0.5-0.1-0.7-0.3l-1.4-1.4c-0.7,0.5-1.4,0.8-2.1,1.2l0.8,1.8c0.3,0.5,0,1.2-0.5,1.4
	c-0.2,0.1-0.3,0.1-0.4,0.1c-0.4,0-0.8-0.3-0.9-0.6l-0.9-1.9c-0.7,0.2-1.4,0.2-2.1,0.2c-0.2,0-0.4,0-0.6-0.1h-0.1l-0.4,1.8
	c-0.1,0.5-0.5,0.8-1,0.8H160c-0.5-0.1-0.9-0.7-0.8-1.2l0.4-1.8c-0.8-0.2-1.5-0.5-2.2-0.9l-1.5,1.5c-0.2,0.2-0.5,0.3-0.7,0.3
	s-0.5-0.1-0.7-0.3c-0.4-0.4-0.4-1,0-1.4l1.3-1.3c-1.1-0.8-1.7-1.7-1.8-1.7c-0.3-0.5-0.2-1.1,0.2-1.4c0.5-0.3,1.1-0.3,1.4,0.2
	c0.1,0,0.8,1,2.1,1.9c0.1,0.1,0.2,0.1,0.3,0.2c1,0.7,2.3,1.3,3.8,1.4c1.9,0.2,3.9-0.5,5.8-2c0.1,0,0.1-0.1,0.1-0.1
	c0.1-0.1,0.2-0.2,0.3-0.3c0.5-0.4,0.9-0.8,1.4-1.3c0.4-0.4,1.1-0.4,1.5,0c0.4,0.4,0.4,1,0,1.4c-0.3,0.3-0.6,0.6-0.9,0.9l1.3,1.1
	C171.6,148.5,171.6,149.1,171.2,149.5z"/>
<path class="st0" d="M212.6,155.8c-1.3-6.6-12.4-14.2-22.2-19.2c5,19.4,11.1,24.5,14.5,25.8c2.9,1.1,5.1-0.2,5.3-0.4
	C212.9,159.2,212.9,157.1,212.6,155.8z M212.6,155.8c-1.3-6.6-12.4-14.2-22.2-19.2c5,19.4,11.1,24.5,14.5,25.8
	c2.9,1.1,5.1-0.2,5.3-0.4C212.9,159.2,212.9,157.1,212.6,155.8z M212.6,155.8c-1.3-6.6-12.4-14.2-22.2-19.2
	c5,19.4,11.1,24.5,14.5,25.8c2.9,1.1,5.1-0.2,5.3-0.4C212.9,159.2,212.9,157.1,212.6,155.8z M212.6,155.8
	c-1.3-6.6-12.4-14.2-22.2-19.2c5,19.4,11.1,24.5,14.5,25.8c2.9,1.1,5.1-0.2,5.3-0.4C212.9,159.2,212.9,157.1,212.6,155.8z
	 M212.6,155.8c-1.3-6.6-12.4-14.2-22.2-19.2c5,19.4,11.1,24.5,14.5,25.8c2.9,1.1,5.1-0.2,5.3-0.4
	C212.9,159.2,212.9,157.1,212.6,155.8z M212.6,155.8c-1.3-6.6-12.4-14.2-22.2-19.2c5,19.4,11.1,24.5,14.5,25.8
	c2.9,1.1,5.1-0.2,5.3-0.4C212.9,159.2,212.9,157.1,212.6,155.8z M212.6,155.8c-1.3-6.6-12.4-14.2-22.2-19.2
	c5,19.4,11.1,24.5,14.5,25.8c2.9,1.1,5.1-0.2,5.3-0.4C212.9,159.2,212.9,157.1,212.6,155.8z M212.6,155.8
	c-1.3-6.6-12.4-14.2-22.2-19.2c5,19.4,11.1,24.5,14.5,25.8c2.9,1.1,5.1-0.2,5.3-0.4C212.9,159.2,212.9,157.1,212.6,155.8z
	 M255.6,102.5c0,0,24.1-39.5-24.9-51.5c0,0-2.6-44.8-51.2-30.6c0,0-28.3-35.2-62.8,0.4c0,0-41.7-13.8-49.5,31
	c0,0-44.7,7.3-24.9,50.7c0,0-34.8,32.7,9,55.5c0,0-12.6,40.7,39.7,44.6v74.7c0,0,3.5,8.9,11.3,7.5s8.9-9.3,8.9-9.3l0.6-53.5
	c0,0,20.7,6.8,36.4-3.4c0,0,21,11.5,37.6,2.4v57c0,0,3.8,8.1,10.5,6.6c0,0,5.1,1,9.3-6.8v-77c0,0,45.3,2.8,40.1-41.5
	C245.8,159.3,288.8,139.1,255.6,102.5z M215.9,167.8c-1.4,1.4-4.7,3.1-8.7,3.1c-1.3,0-2.7-0.2-4.2-0.6c-7.9-2.4-14.2-11.1-18.9-25.9
	c-3.2,23.9-11.7,63.3-34.2,63.7h-0.3c-21.8,0-32.1-37.3-36.4-61.1c-4.5,12.8-10.4,20.3-17.7,22.6c-1.5,0.4-2.8,0.6-4.2,0.6
	c-4.1,0-7.3-1.6-8.7-3.1c-3.9-3.8-5-7.7-5-11c0-0.9,0.2-1.9,0.3-2.7c2.2-10.8,16.9-19.9,26.5-24.9c-0.2-0.1-0.3-0.2-0.4-0.3
	c-2-1.8-4.3-5.1-4.4-10.6c-0.1-5,2.1-7.9,4-9.4c3-2.4,7-3.1,10.1-3.2c0.2-1.7,0.5-3.8,1.6-5.7c1.1-2,3.4-4.7,8-5.9
	c5.5-1.5,9.9-0.3,12.9,1.4c2.2-4.2,6.1-8.4,12.6-8.2c6.5,0.2,10.8,4.7,13.2,9.4c3.2-1.7,6.5-2.4,7.1-2.5c0.3-0.1,0.5-0.1,0.7-0.1
	c4.1,0,7.4,1.4,9.9,4c2.2,2.2,3.2,5,3.7,7.4c8.1-0.4,12.1,4.1,13.2,7.1c2.4,5.3,1.4,9.2,0,11.5c-1.2,2-2.9,3.5-4.8,4.6
	c9.3,4.5,26.5,14.3,28.8,26C221.3,157.5,221,162.7,215.9,167.8z M190.4,136.5c5,19.4,11.1,24.5,14.5,25.8c2.9,1.1,5.1-0.2,5.3-0.4
	c2.7-2.7,2.7-4.8,2.4-6.2C211.3,149.2,200.2,141.6,190.4,136.5z M212.6,155.8c-1.3-6.6-12.4-14.2-22.2-19.2
	c5,19.4,11.1,24.5,14.5,25.8c2.9,1.1,5.1-0.2,5.3-0.4C212.9,159.2,212.9,157.1,212.6,155.8z M212.6,155.8
	c-1.3-6.6-12.4-14.2-22.2-19.2c5,19.4,11.1,24.5,14.5,25.8c2.9,1.1,5.1-0.2,5.3-0.4C212.9,159.2,212.9,157.1,212.6,155.8z
	 M212.6,155.8c-1.3-6.6-12.4-14.2-22.2-19.2c5,19.4,11.1,24.5,14.5,25.8c2.9,1.1,5.1-0.2,5.3-0.4
	C212.9,159.2,212.9,157.1,212.6,155.8z M212.6,155.8c-1.3-6.6-12.4-14.2-22.2-19.2c5,19.4,11.1,24.5,14.5,25.8
	c2.9,1.1,5.1-0.2,5.3-0.4C212.9,159.2,212.9,157.1,212.6,155.8z M212.6,155.8c-1.3-6.6-12.4-14.2-22.2-19.2
	c5,19.4,11.1,24.5,14.5,25.8c2.9,1.1,5.1-0.2,5.3-0.4C212.9,159.2,212.9,157.1,212.6,155.8z M212.6,155.8
	c-1.3-6.6-12.4-14.2-22.2-19.2c5,19.4,11.1,24.5,14.5,25.8c2.9,1.1,5.1-0.2,5.3-0.4C212.9,159.2,212.9,157.1,212.6,155.8z"/>
<g>
	<path class="st1" d="M141.5,149.5c-0.2,0.2-0.5,0.3-0.8,0.3c-0.2,0-0.5-0.1-0.7-0.3l-1.5-1.4c-0.7,0.5-1.4,0.8-2.1,1.2l0.8,1.8
		c0.2,0.5,0,1.2-0.5,1.4c-0.1,0.1-0.3,0.1-0.4,0.1c-0.4,0-0.7-0.3-0.9-0.6l-0.9-2c-0.7,0.2-1.4,0.3-2.1,0.3c-0.2,0-0.4,0-0.7-0.1
		l-0.4,1.8c-0.1,0.5-0.5,0.8-1,0.8h-0.2c-0.6-0.1-0.9-0.7-0.8-1.2l0.4-1.7c-0.8-0.2-1.5-0.6-2.2-0.9l-1.6,1.5
		c-0.2,0.2-0.4,0.3-0.7,0.3c-0.3,0-0.5-0.1-0.7-0.3c-0.4-0.4-0.4-1,0-1.4l1.3-1.3c-1.1-0.8-1.7-1.7-1.8-1.7
		c-0.3-0.5-0.2-1.1,0.2-1.4c0.5-0.4,1.1-0.3,1.4,0.2c0.1,0,0.8,0.9,2.1,1.9c0.2,0.1,0.3,0.2,0.4,0.3c1,0.6,2.3,1.2,3.8,1.3
		c2,0.2,3.9-0.5,5.9-2.1c0.6-0.5,1.2-1,1.7-1.6c0.4-0.4,1.1-0.4,1.5,0.1c0.4,0.4,0.4,1,0,1.4c-0.3,0.3-0.6,0.6-0.9,0.9l1.3,1.1
		C141.8,148.5,141.8,149.1,141.5,149.5z"/>
</g>
<g>
	<path class="st1" d="M171.2,149.5c-0.2,0.2-0.5,0.3-0.7,0.3c-0.3,0-0.5-0.1-0.7-0.3l-1.4-1.4c-0.7,0.5-1.4,0.8-2.1,1.2l0.8,1.8
		c0.3,0.5,0,1.2-0.5,1.4c-0.2,0.1-0.3,0.1-0.4,0.1c-0.4,0-0.8-0.3-0.9-0.6l-0.9-1.9c-0.7,0.2-1.4,0.2-2.1,0.2c-0.2,0-0.4,0-0.6-0.1
		h-0.1l-0.4,1.8c-0.1,0.5-0.5,0.8-1,0.8H160c-0.5-0.1-0.9-0.7-0.8-1.2l0.4-1.8c-0.8-0.2-1.5-0.5-2.2-0.9l-1.5,1.5
		c-0.2,0.2-0.5,0.3-0.7,0.3s-0.5-0.1-0.7-0.3c-0.4-0.4-0.4-1,0-1.4l1.3-1.3c-1.1-0.8-1.7-1.7-1.8-1.7c-0.3-0.5-0.2-1.1,0.2-1.4
		c0.5-0.3,1.1-0.3,1.4,0.2c0.1,0,0.8,1,2.1,1.9c0.1,0.1,0.2,0.1,0.3,0.2c1,0.7,2.3,1.3,3.8,1.4c1.9,0.2,3.9-0.5,5.8-2
		c0.1,0,0.1-0.1,0.1-0.1c0.1-0.1,0.2-0.2,0.3-0.3c0.5-0.4,0.9-0.8,1.4-1.3c0.4-0.4,1.1-0.4,1.5,0c0.4,0.4,0.4,1,0,1.4
		c-0.3,0.3-0.6,0.6-0.9,0.9l1.3,1.1C171.6,148.5,171.6,149.1,171.2,149.5z"/>
</g>
</svg>
