<?xml version="1.0" encoding="utf-8"?>
<!-- Generator: Adobe Illustrator 19.2.0, SVG Export Plug-In . SVG Version: 6.00 Build 0)  -->
<svg version="1.1" id="Layer_1" xmlns="http://www.w3.org/2000/svg" xmlns:xlink="http://www.w3.org/1999/xlink" x="0px" y="0px"
	 viewBox="0 0 288 288" style="enable-background:new 0 0 288 288;" xml:space="preserve">
<style type="text/css">
	.st0{fill:#3A3A3A;}
</style>
<path class="st0" d="M102.8,137.9c-4.5,17.3-9.9,21.9-13,23c-2.6,1-4.5-0.2-4.8-0.4c-2.4-2.5-2.3-4.3-2.1-5.6
	C84.1,149.2,94,142.5,102.8,137.9z"/>
<path class="st0" d="M175,119.5c0-0.1,0-0.2-0.1-0.4c-0.1-0.1-1.4-2.6-7.3-1.2c-1.1,0.3-2.3,0-3.2-0.8c-0.9-0.7-1.4-1.8-1.3-3
	c0-1-0.2-4-1.7-5.6c-0.8-0.8-1.8-1.2-3.2-1.2c-2,0.4-4.9,1.6-5.6,3c-0.7,1.4-2.2,2.1-3.7,1.9c-1.5-0.2-2.8-1.4-3.1-2.9
	c0,0-1.9-8.1-6.8-8.2c-4.7,0-5.8,6.5-5.8,6.8c-0.2,1.5-1.4,2.6-2.8,3c-1.5,0.3-2.9-0.2-3.8-1.5c-0.3-0.3-3-3.9-8.3-2.5
	c-2,0.5-2.4,1.4-2.6,1.7c-0.8,1.6-0.4,3.8-0.2,4.6c0.4,1.2,0,2.6-0.8,3.5c-0.9,0.9-2.2,1.4-3.4,1.1c-1.8-0.4-6-0.6-7.8,0.9
	c-0.2,0.2-0.9,0.8-0.8,2.6c0,1.9,0.5,3.3,1.5,4.2c1.6,1.5,4.3,1.5,4.3,1.5h0.3c1.8,0,3.4,1.4,3.6,3.2c1.7,16.8,10.4,64.7,27.7,64.7
	h0.1c17.3-0.2,23.9-48.4,24.8-65.3c0-1.8,1.5-3.2,3.2-3.4c1.9-0.2,6.2-1.2,7.3-3.2C175.7,122.9,176.2,121.9,175,119.5z M132.5,150.1
	c-0.2,0.2-0.4,0.3-0.7,0.3c-0.2,0-0.4-0.1-0.6-0.2l-1.3-1.2c-0.6,0.4-1.2,0.8-1.8,1l0.7,1.6c0.2,0.5,0,1-0.5,1.2
	c-0.1,0-0.2,0.1-0.4,0.1c-0.3,0-0.7-0.2-0.8-0.6l-0.8-1.8c-0.6,0.2-1.2,0.2-1.8,0.2c-0.2,0-0.4,0-0.6,0l-0.3,1.6
	c-0.1,0.4-0.5,0.7-0.9,0.7h-0.2c-0.5-0.1-0.8-0.6-0.7-1.1l0.3-1.6c-0.7-0.2-1.4-0.5-1.9-0.8l-1.4,1.4c-0.2,0.2-0.4,0.3-0.6,0.3
	c-0.2,0-0.5-0.1-0.7-0.3c-0.4-0.3-0.4-0.9,0-1.3l1.2-1.2c-1-0.8-1.6-1.5-1.6-1.5c-0.3-0.4-0.2-1,0.2-1.3c0.4-0.3,1-0.2,1.3,0.2
	c0,0,0.7,0.8,1.8,1.7c0.1,0.1,0.2,0.1,0.3,0.2c0.9,0.6,2.1,1.1,3.4,1.2c1.8,0.2,3.5-0.5,5.3-1.8c0.5-0.4,1-0.9,1.6-1.4
	c0.4-0.3,0.9-0.3,1.3,0c0.3,0.3,0.3,0.9,0,1.3c-0.3,0.3-0.6,0.6-0.9,0.8l1.1,1C132.9,149.2,132.9,149.7,132.5,150.1z M159.1,150.1
	c-0.2,0.2-0.4,0.3-0.7,0.3c-0.2,0-0.5-0.1-0.7-0.2l-1.3-1.2c-0.6,0.4-1.3,0.8-1.9,1l0.7,1.6c0.2,0.5,0,1-0.4,1.2
	c-0.1,0-0.3,0.1-0.4,0.1c-0.4,0-0.7-0.2-0.8-0.6l-0.8-1.7c-0.6,0.1-1.2,0.2-1.8,0.2c-0.2,0-0.4,0-0.6,0h-0.1l-0.3,1.6
	c-0.1,0.4-0.5,0.7-0.9,0.7h-0.2c-0.5-0.1-0.8-0.6-0.7-1.1l0.3-1.6c-0.7-0.2-1.4-0.5-1.9-0.8l-1.4,1.4c-0.2,0.2-0.4,0.3-0.7,0.3
	c-0.2,0-0.5-0.1-0.7-0.3c-0.4-0.3-0.4-0.9,0-1.3l1.2-1.2c-1-0.8-1.5-1.5-1.6-1.5c-0.3-0.4-0.2-1,0.2-1.3c0.4-0.3,1-0.2,1.3,0.2
	c0.1,0,0.7,0.9,1.9,1.7c0.1,0,0.2,0.1,0.3,0.2c0.9,0.6,2.1,1.1,3.4,1.2c1.7,0.1,3.5-0.5,5.2-1.8c0,0,0,0,0,0
	c0.1-0.1,0.2-0.1,0.3-0.2c0.4-0.3,0.8-0.7,1.3-1.1c0.4-0.4,0.9-0.4,1.3,0c0.3,0.3,0.3,0.9,0,1.3c-0.3,0.3-0.6,0.6-0.8,0.8l1.1,1
	C159.5,149.2,159.5,149.7,159.1,150.1z"/>
<path class="st0" d="M196.1,155.7c-1.2-5.9-11.1-12.7-19.9-17.2c4.5,17.3,9.9,21.9,13,23.1c2.6,1,4.5-0.2,4.8-0.4
	C196.4,158.7,196.4,156.9,196.1,155.7z M196.1,155.7c-1.2-5.9-11.1-12.7-19.9-17.2c4.5,17.3,9.9,21.9,13,23.1c2.6,1,4.5-0.2,4.8-0.4
	C196.4,158.7,196.4,156.9,196.1,155.7z M196.1,155.7c-1.2-5.9-11.1-12.7-19.9-17.2c4.5,17.3,9.9,21.9,13,23.1c2.6,1,4.5-0.2,4.8-0.4
	C196.4,158.7,196.4,156.9,196.1,155.7z M196.1,155.7c-1.2-5.9-11.1-12.7-19.9-17.2c4.5,17.3,9.9,21.9,13,23.1c2.6,1,4.5-0.2,4.8-0.4
	C196.4,158.7,196.4,156.9,196.1,155.7z M196.1,155.7c-1.2-5.9-11.1-12.7-19.9-17.2c4.5,17.3,9.9,21.9,13,23.1c2.6,1,4.5-0.2,4.8-0.4
	C196.4,158.7,196.4,156.9,196.1,155.7z M196.1,155.7c-1.2-5.9-11.1-12.7-19.9-17.2c4.5,17.3,9.9,21.9,13,23.1c2.6,1,4.5-0.2,4.8-0.4
	C196.4,158.7,196.4,156.9,196.1,155.7z M196.1,155.7c-1.2-5.9-11.1-12.7-19.9-17.2c4.5,17.3,9.9,21.9,13,23.1c2.6,1,4.5-0.2,4.8-0.4
	C196.4,158.7,196.4,156.9,196.1,155.7z M196.1,155.7c-1.2-5.9-11.1-12.7-19.9-17.2c4.5,17.3,9.9,21.9,13,23.1c2.6,1,4.5-0.2,4.8-0.4
	C196.4,158.7,196.4,156.9,196.1,155.7z M196.1,155.7c-1.2-5.9-11.1-12.7-19.9-17.2c4.5,17.3,9.9,21.9,13,23.1c2.6,1,4.5-0.2,4.8-0.4
	C196.4,158.7,196.4,156.9,196.1,155.7z M196.1,155.7c-1.2-5.9-11.1-12.7-19.9-17.2c4.5,17.3,9.9,21.9,13,23.1c2.6,1,4.5-0.2,4.8-0.4
	C196.4,158.7,196.4,156.9,196.1,155.7z M234.5,108.1c0,0,21.6-35.3-22.3-46c0,0-2.3-40-45.7-27.3c0,0-25.3-31.5-56.1,0.4
	c0,0-37.3-12.3-44.2,27.7c0,0-40,6.5-22.3,45.3c0,0-31.1,29.2,8.1,49.6c0,0-11.2,36.3,35.4,39.9v66.7c0,0,3.1,8,10.1,6.7
	c7-1.3,8-8.3,8-8.3l0.5-47.8c0,0,18.5,6.1,32.5-3.1c0,0,18.8,10.3,33.6,2.2v50.9c0,0,3.4,7.2,9.4,5.9c0,0,4.5,0.9,8.3-6.1v-68.8
	c0,0,40.4,2.5,35.9-37.1C225.7,158.8,264.1,140.8,234.5,108.1z M199,166.5c-1.3,1.3-4.2,2.8-7.8,2.8c-1.2,0-2.4-0.1-3.7-0.6
	c-7.1-2.1-12.7-9.9-16.9-23.1c-2.8,21.3-10.4,56.6-30.5,56.9h-0.2c-19.5,0-28.7-33.3-32.5-54.5c-4,11.4-9.3,18.2-15.8,20.2
	c-1.3,0.4-2.5,0.5-3.8,0.5c-3.6,0-6.5-1.5-7.8-2.8c-3.5-3.4-4.5-6.9-4.5-9.8c0-0.8,0.1-1.7,0.3-2.4c1.9-9.6,15.1-17.8,23.7-22.2
	c-0.2-0.1-0.2-0.1-0.3-0.3c-1.8-1.6-3.8-4.5-3.9-9.5c-0.1-4.4,1.8-7,3.5-8.4c2.7-2.2,6.2-2.8,9-2.8c0.1-1.6,0.5-3.4,1.4-5.1
	c1-1.8,3-4.2,7.1-5.3c4.9-1.4,8.8-0.3,11.5,1.2c2-3.8,5.5-7.5,11.2-7.3c5.8,0.1,9.6,4.2,11.8,8.4c2.9-1.6,5.8-2.1,6.3-2.3
	c0.2,0,0.4,0,0.7,0c3.6,0,6.6,1.2,8.8,3.6c1.9,2,2.9,4.5,3.3,6.6c7.2-0.4,10.8,3.7,11.8,6.4c2.1,4.8,1.2,8.2,0,10.3
	c-1,1.8-2.6,3.1-4.3,4.1c8.3,4.1,23.7,12.8,25.7,23.3C203.9,157.3,203.6,161.9,199,166.5z M176.2,138.5c4.5,17.3,9.9,21.9,13,23.1
	c2.6,1,4.5-0.2,4.8-0.4c2.4-2.5,2.4-4.3,2.1-5.5C194.9,149.8,185,143,176.2,138.5z M196.1,155.7c-1.2-5.9-11.1-12.7-19.9-17.2
	c4.5,17.3,9.9,21.9,13,23.1c2.6,1,4.5-0.2,4.8-0.4C196.4,158.7,196.4,156.9,196.1,155.7z M196.1,155.7c-1.2-5.9-11.1-12.7-19.9-17.2
	c4.5,17.3,9.9,21.9,13,23.1c2.6,1,4.5-0.2,4.8-0.4C196.4,158.7,196.4,156.9,196.1,155.7z M196.1,155.7c-1.2-5.9-11.1-12.7-19.9-17.2
	c4.5,17.3,9.9,21.9,13,23.1c2.6,1,4.5-0.2,4.8-0.4C196.4,158.7,196.4,156.9,196.1,155.7z M196.1,155.7c-1.2-5.9-11.1-12.7-19.9-17.2
	c4.5,17.3,9.9,21.9,13,23.1c2.6,1,4.5-0.2,4.8-0.4C196.4,158.7,196.4,156.9,196.1,155.7z M196.1,155.7c-1.2-5.9-11.1-12.7-19.9-17.2
	c4.5,17.3,9.9,21.9,13,23.1c2.6,1,4.5-0.2,4.8-0.4C196.4,158.7,196.4,156.9,196.1,155.7z M196.1,155.7c-1.2-5.9-11.1-12.7-19.9-17.2
	c4.5,17.3,9.9,21.9,13,23.1c2.6,1,4.5-0.2,4.8-0.4C196.4,158.7,196.4,156.9,196.1,155.7z M196.1,155.7c-1.2-5.9-11.1-12.7-19.9-17.2
	c4.5,17.3,9.9,21.9,13,23.1c2.6,1,4.5-0.2,4.8-0.4C196.4,158.7,196.4,156.9,196.1,155.7z M196.1,155.7c-1.2-5.9-11.1-12.7-19.9-17.2
	c4.5,17.3,9.9,21.9,13,23.1c2.6,1,4.5-0.2,4.8-0.4C196.4,158.7,196.4,156.9,196.1,155.7z M196.1,155.7c-1.2-5.9-11.1-12.7-19.9-17.2
	c4.5,17.3,9.9,21.9,13,23.1c2.6,1,4.5-0.2,4.8-0.4C196.4,158.7,196.4,156.9,196.1,155.7z M196.1,155.7c-1.2-5.9-11.1-12.7-19.9-17.2
	c4.5,17.3,9.9,21.9,13,23.1c2.6,1,4.5-0.2,4.8-0.4C196.4,158.7,196.4,156.9,196.1,155.7z"/>
</svg>
