<?xml version="1.0" encoding="utf-8"?>
<!-- Generator: Adobe Illustrator 19.2.0, SVG Export Plug-In . SVG Version: 6.00 Build 0)  -->
<svg version="1.1" id="Layer_1" xmlns="http://www.w3.org/2000/svg" xmlns:xlink="http://www.w3.org/1999/xlink" x="0px" y="0px"
	 viewBox="0 0 288 288" style="enable-background:new 0 0 288 288;" xml:space="preserve">
<style type="text/css">
	.st0{fill:#3A3A3A;}
</style>
<polygon class="st0" points="58.6,5.3 74.1,36.8 108.9,41.9 83.8,66.4 89.7,101.1 58.6,84.7 27.5,101.1 33.4,66.4 8.2,41.9 43,36.8 
	"/>
<polygon class="st0" points="231,70.8 246.6,102.3 281.4,107.4 256.2,131.9 262.1,166.6 231,150.2 199.9,166.6 205.8,131.9 
	180.7,107.4 215.5,102.3 "/>
<polygon class="st0" points="82.6,181 98.2,212.5 132.9,217.6 107.8,242.1 113.7,276.8 82.6,260.4 51.5,276.8 57.4,242.1 
	32.2,217.6 67,212.5 "/>
</svg>
