<?xml version="1.0" encoding="utf-8"?>
<!-- Generator: Adobe Illustrator 19.2.0, SVG Export Plug-In . SVG Version: 6.00 Build 0)  -->
<svg version="1.1" id="Layer_1" xmlns="http://www.w3.org/2000/svg" xmlns:xlink="http://www.w3.org/1999/xlink" x="0px" y="0px"
	 viewBox="0 0 288 288" style="enable-background:new 0 0 288 288;" xml:space="preserve">
<style type="text/css">
	.st0{fill:#3A3A3A;}
</style>
<circle class="st0" cx="145.7" cy="145.5" r="74.7"/>
<path class="st0" d="M146.1,54.2C146.1,54.2,146.1,54.2,146.1,54.2c-4.1,0-7.4-3.4-7.3-7.4L139,24c0-4,3.3-7.3,7.3-7.3
	c0,0,0.1,0,0.1,0c4.1,0,7.3,3.4,7.3,7.4L153.5,47C153.4,51,150.1,54.2,146.1,54.2z"/>
<path class="st0" d="M213.8,86.4c-1.9,0-3.7-0.7-5.2-2.1c-2.9-2.8-2.9-7.5-0.1-10.4l18.2-18.5c2.8-2.9,7.5-2.9,10.4-0.1
	c2.9,2.8,2.9,7.5,0.1,10.4L219,84.2C217.6,85.7,215.7,86.4,213.8,86.4z"/>
<path class="st0" d="M241.4,155c-3.8,0-7-2.9-7.3-6.8c-0.3-4,2.7-7.6,6.7-7.9l26.4-2.1c4-0.3,7.6,2.7,7.9,6.7c0.3,4-2.7,7.6-6.7,7.9
	L242,155C241.8,155,241.6,155,241.4,155z"/>
<path class="st0" d="M75.4,82.1c-1.9,0-3.9-0.8-5.3-2.3l-15-15.7c-2.8-2.9-2.7-7.6,0.2-10.4c2.9-2.8,7.6-2.7,10.4,0.2l15,15.7
	c2.8,2.9,2.7,7.6-0.2,10.4C79.1,81.4,77.2,82.1,75.4,82.1z"/>
<path class="st0" d="M20.9,154.2c-4,0-7.3-3.3-7.3-7.3c0-4.1,3.3-7.3,7.3-7.4l27-0.1c0,0,0,0,0,0c4,0,7.3,3.3,7.3,7.3
	c0,4.1-3.3,7.3-7.3,7.4L20.9,154.2C20.9,154.2,20.9,154.2,20.9,154.2z"/>
<path class="st0" d="M58.4,241.3c-1.9,0-3.7-0.7-5.2-2.1c-2.9-2.8-2.9-7.5-0.1-10.4L71,210.7c2.8-2.9,7.5-2.9,10.4-0.1
	c2.9,2.8,2.9,7.5,0.1,10.4l-17.8,18.1C62.2,240.6,60.3,241.3,58.4,241.3z"/>
<path class="st0" d="M146.8,273.4c-3.9,0-7.2-3.1-7.3-7.1l-0.7-21.1c-0.1-4.1,3-7.4,7.1-7.6c4-0.1,7.4,3,7.6,7.1l0.7,21.1
	c0.1,4.1-3,7.4-7.1,7.6C147,273.4,146.9,273.4,146.8,273.4z"/>
<path class="st0" d="M233.4,240.6c-1.8,0-3.7-0.7-5.1-2.1l-16.8-16.3c-2.9-2.8-3-7.5-0.1-10.4c2.8-2.9,7.5-3,10.4-0.1l16.8,16.3
	c2.9,2.8,3,7.5,0.1,10.4C237.3,239.8,235.3,240.6,233.4,240.6z"/>
</svg>
