<?xml version="1.0" encoding="utf-8"?>
<!-- Generator: Adobe Illustrator 19.2.0, SVG Export Plug-In . SVG Version: 6.00 Build 0)  -->
<svg version="1.1" id="Layer_1" xmlns="http://www.w3.org/2000/svg" xmlns:xlink="http://www.w3.org/1999/xlink" x="0px" y="0px"
	 viewBox="0 0 288 288" style="enable-background:new 0 0 288 288;" xml:space="preserve">
<polygon points="113.3,34.2 39,101 113.3,101 113.3,115.6 18.4,115.6 18.4,101 91.6,34.2 18.4,34.2 18.4,19.6 113.3,19.6 "/>
<polygon points="194.6,140.2 128.5,199.6 194.6,199.6 194.6,212.6 110.2,212.6 110.2,199.6 175.2,140.2 110.2,140.2 110.2,127.2 
	194.6,127.2 "/>
<polygon points="260.7,234.2 224.2,267.1 260.7,267.1 260.7,274.3 214,274.3 214,267.1 250,234.2 214,234.2 214,227 260.7,227 "/>
</svg>
